<svg width="138" height="32" viewBox="0 0 138 32" fill="none" xmlns="http://www.w3.org/2000/svg">
<path id="HOWLIL" d="M15.7975 2.936V18.308H22.2415V2.684H28.6855V30.044H22.2415V24.824H15.7975V28.856H9.31748V2.936H15.7975ZM44.1964 1.712C45.9484 1.712 47.5804 2.072 49.0924 2.792C50.6044 3.512 51.9364 4.52 53.0884 5.816C54.1684 7.04 55.0084 8.456 55.6084 10.064C56.2084 11.648 56.5084 13.364 56.5084 15.212C56.5084 17.012 56.2084 18.716 55.6084 20.324C55.0084 21.932 54.1684 23.336 53.0884 24.536C51.9364 25.832 50.6044 26.852 49.0924 27.596C47.5804 28.316 45.9484 28.676 44.1964 28.676C42.4684 28.676 40.8484 28.316 39.3364 27.596C37.8484 26.852 36.5284 25.832 35.3764 24.536C34.2964 23.336 33.4444 21.932 32.8204 20.324C32.1964 18.716 31.8844 17.012 31.8844 15.212C31.8844 13.364 32.1964 11.648 32.8204 10.064C33.4444 8.456 34.2964 7.04 35.3764 5.816C36.5284 4.52 37.8484 3.512 39.3364 2.792C40.8484 2.072 42.4684 1.712 44.1964 1.712ZM48.2284 10.1C47.6764 9.524 47.0644 9.068 46.3924 8.732C45.7204 8.396 44.9884 8.228 44.1964 8.228C43.4284 8.228 42.6964 8.396 42.0004 8.732C41.3284 9.068 40.7404 9.524 40.2364 10.1C39.6604 10.748 39.2044 11.516 38.8684 12.404C38.5564 13.268 38.4004 14.204 38.4004 15.212C38.4004 16.22 38.5564 17.156 38.8684 18.02C39.2044 18.86 39.6604 19.604 40.2364 20.252C40.7404 20.852 41.3284 21.32 42.0004 21.656C42.6964 21.992 43.4284 22.16 44.1964 22.16C44.9884 22.16 45.7204 21.992 46.3924 21.656C47.0644 21.32 47.6764 20.852 48.2284 20.252C48.7804 19.604 49.2124 18.86 49.5244 18.02C49.8604 17.156 50.0284 16.22 50.0284 15.212C50.0284 14.204 49.8604 13.268 49.5244 12.404C49.2124 11.516 48.7804 10.748 48.2284 10.1ZM63.5554 -0.268001L67.7314 13.7L71.6914 2.432L76.4434 2.144L79.4674 13.232L82.4914 1.388L88.7554 3.008L82.0234 28.82H76.5514L73.8874 15.644L70.5394 28.82H65.4634L57.3274 1.532L63.5554 -0.268001ZM97.468 2.144V22.664H103.732V29.108H90.988V2.144H97.468ZM112.937 3.8V29.072H106.457V3.8H112.937ZM122.394 2.144V22.664H128.658V29.108H115.914V2.144H122.394Z" fill="#2C3E50"/>
</svg>
